# xmcd
#
# Track frame offsets: 
#        150
#        16040
#        38015
#
# Disc length: 806 seconds
#
# Revision: 0
# Processed by: cddbd v1.5.2PL0 Copyright (c) Steve Scherf et al.
# Submitted via: ExactAudioCopy v0.95b4
#
DISCID=13032403
DTITLE=Sista Monica - It's a Shame. It's a Mystery
DYEAR=1999
DGENRE=Soul/Blues
TTITLE0=01 Baby Workout!
TTITLE1=02 It's A Shame, It's A mystery
TTITLE2=03 Where Did Sista Monica Come From?
EXTD=
EXTT0=Baby Workout!
EXTT1=
EXTT2=
PLAYORDER=
